<mxfile host="app.diagrams.net" modified="2024-05-09T11:44:04.690Z" agent="Mozilla/5.0 (Windows NT 10.0; Win64; x64) AppleWebKit/537.36 (KHTML, like Gecko) Chrome/124.0.0.0 Safari/537.36" etag="-gYkMprWirqp7pghgrPz" version="24.3.1" type="device">
  <diagram name="Página-1" id="KMNvCZjreb9E50Z_TuEx">
    <mxGraphModel dx="1434" dy="780" grid="1" gridSize="10" guides="1" tooltips="1" connect="1" arrows="1" fold="1" page="1" pageScale="1" pageWidth="827" pageHeight="1169" background="none" math="0" shadow="0">
      <root>
        <mxCell id="0" />
        <mxCell id="1" parent="0" />
        <mxCell id="oybsFn7k2fHWY8-64xWk-2" value="Usuario&lt;div&gt;Registrado&lt;/div&gt;" style="shape=umlActor;verticalLabelPosition=bottom;verticalAlign=top;html=1;outlineConnect=0;rounded=0;" parent="1" vertex="1">
          <mxGeometry x="120" y="210" width="30" height="60" as="geometry" />
        </mxCell>
        <mxCell id="oybsFn7k2fHWY8-64xWk-3" value="Invitado" style="shape=umlActor;verticalLabelPosition=bottom;verticalAlign=top;html=1;outlineConnect=0;rounded=0;direction=east;" parent="1" vertex="1">
          <mxGeometry x="60" y="410" width="30" height="60" as="geometry" />
        </mxCell>
        <mxCell id="oybsFn7k2fHWY8-64xWk-4" value="BARteca" style="swimlane;whiteSpace=wrap;html=1;rounded=0;" parent="1" vertex="1">
          <mxGeometry x="310" y="25" width="420" height="560" as="geometry">
            <mxRectangle x="300" y="25" width="90" height="30" as="alternateBounds" />
          </mxGeometry>
        </mxCell>
        <mxCell id="oybsFn7k2fHWY8-64xWk-5" value="Ver listado de bares" style="ellipse;whiteSpace=wrap;html=1;rounded=0;" parent="oybsFn7k2fHWY8-64xWk-4" vertex="1">
          <mxGeometry x="140" y="190" width="73" height="50" as="geometry" />
        </mxCell>
        <mxCell id="oybsFn7k2fHWY8-64xWk-6" value="Añadir un bar" style="ellipse;whiteSpace=wrap;html=1;rounded=0;" parent="oybsFn7k2fHWY8-64xWk-4" vertex="1">
          <mxGeometry x="250" y="105" width="70" height="50" as="geometry" />
        </mxCell>
        <mxCell id="oybsFn7k2fHWY8-64xWk-7" value="Eliminar un bar" style="ellipse;whiteSpace=wrap;html=1;rounded=0;" parent="oybsFn7k2fHWY8-64xWk-4" vertex="1">
          <mxGeometry x="250" y="190" width="73" height="50" as="geometry" />
        </mxCell>
        <mxCell id="oybsFn7k2fHWY8-64xWk-9" value="Registro" style="ellipse;whiteSpace=wrap;html=1;rounded=0;" parent="oybsFn7k2fHWY8-64xWk-4" vertex="1">
          <mxGeometry x="90" y="390" width="73" height="50" as="geometry" />
        </mxCell>
        <mxCell id="oybsFn7k2fHWY8-64xWk-18" value="" style="endArrow=none;html=1;rounded=0;entryX=0;entryY=0.5;entryDx=0;entryDy=0;exitX=1;exitY=0;exitDx=0;exitDy=0;" parent="oybsFn7k2fHWY8-64xWk-4" source="oybsFn7k2fHWY8-64xWk-5" target="oybsFn7k2fHWY8-64xWk-6" edge="1">
          <mxGeometry width="50" height="50" relative="1" as="geometry">
            <mxPoint x="170.88" y="495" as="sourcePoint" />
            <mxPoint x="220.88" y="445" as="targetPoint" />
          </mxGeometry>
        </mxCell>
        <mxCell id="oybsFn7k2fHWY8-64xWk-17" value="" style="endArrow=none;html=1;rounded=0;exitX=1;exitY=0.5;exitDx=0;exitDy=0;entryX=0;entryY=0.5;entryDx=0;entryDy=0;" parent="oybsFn7k2fHWY8-64xWk-4" source="oybsFn7k2fHWY8-64xWk-5" target="oybsFn7k2fHWY8-64xWk-7" edge="1">
          <mxGeometry width="50" height="50" relative="1" as="geometry">
            <mxPoint x="170.88" y="495" as="sourcePoint" />
            <mxPoint x="230.88" y="255" as="targetPoint" />
          </mxGeometry>
        </mxCell>
        <mxCell id="ocy74q3leFA8f2ff79VR-1" value="Hacer reserva en un bar" style="ellipse;whiteSpace=wrap;html=1;" parent="oybsFn7k2fHWY8-64xWk-4" vertex="1">
          <mxGeometry x="250" y="275" width="94" height="50" as="geometry" />
        </mxCell>
        <mxCell id="ocy74q3leFA8f2ff79VR-2" value="" style="endArrow=none;html=1;rounded=0;entryX=0;entryY=0;entryDx=0;entryDy=0;exitX=1;exitY=1;exitDx=0;exitDy=0;" parent="oybsFn7k2fHWY8-64xWk-4" source="oybsFn7k2fHWY8-64xWk-5" target="ocy74q3leFA8f2ff79VR-1" edge="1">
          <mxGeometry width="50" height="50" relative="1" as="geometry">
            <mxPoint x="160.88" y="395" as="sourcePoint" />
            <mxPoint x="210.88" y="345" as="targetPoint" />
          </mxGeometry>
        </mxCell>
        <mxCell id="oybsFn7k2fHWY8-64xWk-8" value="Login" style="ellipse;whiteSpace=wrap;html=1;rounded=0;" parent="oybsFn7k2fHWY8-64xWk-4" vertex="1">
          <mxGeometry x="50" y="85" width="70" height="50" as="geometry" />
        </mxCell>
        <mxCell id="HLVP6ThfAfu_IGkA2AQw-2" value="" style="endArrow=none;html=1;rounded=0;entryX=1;entryY=1;entryDx=0;entryDy=0;dashed=1;" parent="oybsFn7k2fHWY8-64xWk-4" source="oybsFn7k2fHWY8-64xWk-5" target="oybsFn7k2fHWY8-64xWk-8" edge="1">
          <mxGeometry width="50" height="50" relative="1" as="geometry">
            <mxPoint x="36" y="245" as="sourcePoint" />
            <mxPoint x="-120" y="250" as="targetPoint" />
          </mxGeometry>
        </mxCell>
        <mxCell id="HLVP6ThfAfu_IGkA2AQw-3" value="&amp;lt;&amp;lt;include&amp;gt;&amp;gt;" style="edgeLabel;html=1;align=center;verticalAlign=middle;resizable=0;points=[];" parent="HLVP6ThfAfu_IGkA2AQw-2" vertex="1" connectable="0">
          <mxGeometry x="-0.0917" y="-2" relative="1" as="geometry">
            <mxPoint as="offset" />
          </mxGeometry>
        </mxCell>
        <mxCell id="oybsFn7k2fHWY8-64xWk-11" value="" style="endArrow=none;html=1;rounded=0;exitX=0;exitY=0.5;exitDx=0;exitDy=0;endFill=0;startArrow=block;startFill=1;" parent="1" source="oybsFn7k2fHWY8-64xWk-9" target="oybsFn7k2fHWY8-64xWk-3" edge="1">
          <mxGeometry width="50" height="50" relative="1" as="geometry">
            <mxPoint x="390" y="430" as="sourcePoint" />
            <mxPoint x="440" y="380" as="targetPoint" />
          </mxGeometry>
        </mxCell>
        <mxCell id="oybsFn7k2fHWY8-64xWk-14" value="" style="endArrow=none;html=1;rounded=0;exitX=0;exitY=0.5;exitDx=0;exitDy=0;startArrow=block;startFill=1;" parent="1" source="oybsFn7k2fHWY8-64xWk-8" target="oybsFn7k2fHWY8-64xWk-2" edge="1">
          <mxGeometry width="50" height="50" relative="1" as="geometry">
            <mxPoint x="390" y="430" as="sourcePoint" />
            <mxPoint x="440" y="380" as="targetPoint" />
          </mxGeometry>
        </mxCell>
        <mxCell id="oybsFn7k2fHWY8-64xWk-22" value="" style="endArrow=none;html=1;entryX=0;entryY=0;entryDx=0;entryDy=0;startArrow=block;startFill=1;" parent="1" source="oybsFn7k2fHWY8-64xWk-2" target="oybsFn7k2fHWY8-64xWk-9" edge="1">
          <mxGeometry width="50" height="50" relative="1" as="geometry">
            <mxPoint x="80" y="590" as="sourcePoint" />
            <mxPoint x="130" y="540" as="targetPoint" />
          </mxGeometry>
        </mxCell>
        <mxCell id="ADsA-2GIATiK0M_-IfuD-1" value="" style="endArrow=classic;html=1;rounded=0;entryX=0;entryY=0.5;entryDx=0;entryDy=0;" edge="1" parent="1" source="oybsFn7k2fHWY8-64xWk-2" target="oybsFn7k2fHWY8-64xWk-5">
          <mxGeometry width="50" height="50" relative="1" as="geometry">
            <mxPoint x="390" y="430" as="sourcePoint" />
            <mxPoint x="440" y="380" as="targetPoint" />
          </mxGeometry>
        </mxCell>
      </root>
    </mxGraphModel>
  </diagram>
</mxfile>
